<?xml version="1.0" encoding="UTF-8"?>
<svg version="1.1" xmlns="http://www.w3.org/2000/svg" width="1531" height="1531">
<path d="M0 0 C1.25804443 0.61681641 1.25804443 0.61681641 2.54150391 1.24609375 C14.71733155 7.25928872 26.10628477 13.88932947 37 22 C37.59329102 22.43779785 38.18658203 22.8755957 38.79785156 23.32666016 C57.60121465 37.30745271 73.73609797 54.57532684 90.24560547 71.11523438 C93.38992352 74.26529266 96.53877217 77.41077808 99.68893433 80.55499077 C102.14443617 83.006863 104.59753185 85.46113151 107.04992676 87.91611099 C108.21007202 89.07691661 109.37094184 90.23699861 110.53259277 91.39629745 C112.15568676 93.01682003 113.7754886 94.64056773 115.39453125 96.26513672 C116.31081299 97.18221405 117.22709473 98.09929138 118.17114258 99.04415894 C120.18242119 101.10162345 122.06237865 103.23290191 123.92407227 105.42605591 C129.86016425 112.26058157 136.41107977 118.53269651 142.8203125 124.91796875 C144.32743253 126.4231674 145.83432341 127.92859552 147.34100342 129.43423462 C150.57467816 132.66475868 153.80989747 135.89372496 157.04632568 139.12149048 C162.16792142 144.22951815 167.28566001 149.34139865 172.40283203 154.45385742 C183.26559405 165.30553809 194.13257711 176.15298727 205 187 C216.73378088 198.71174361 228.4668302 210.42421444 240.19499779 222.14157963 C245.27795275 227.21956373 250.36333344 232.29510202 255.4506073 237.36875916 C258.61880921 240.52948169 261.78491998 243.69229264 264.9504776 246.8556633 C266.41408203 248.31740183 267.87854761 249.77827872 269.34395599 251.23820877 C281.81159594 263.66071948 281.81159594 263.66071948 285.4942627 267.9942627 C291.20708926 274.71505693 297.66835478 280.78919838 303.91210938 287.00976562 C305.42908148 288.52481638 306.94582446 290.04009658 308.46235657 291.55558777 C311.71731228 294.80739266 314.97381264 298.05763979 318.23152161 301.3066864 C323.38672194 306.44831937 328.53806576 311.59380455 333.68884277 316.73986816 C344.62293467 327.66287842 355.56124751 338.58165736 366.5 349.5 C378.3107697 361.28873282 390.1208081 373.07819265 401.92596483 384.87254667 C407.04237143 389.9839822 412.16120388 395.09297191 417.28192902 400.20008087 C420.47088969 403.38156254 423.65775956 406.5651323 426.84407616 409.74926186 C428.31735598 411.22067567 429.79149701 412.69122779 431.26658058 414.16083336 C443.92992164 426.77863997 443.92992164 426.77863997 449.15770721 432.93186188 C453.9118619 438.26882494 459.10463637 443.22380134 464.16796875 448.265625 C465.4977514 449.5934857 466.8273045 450.92157631 468.15664673 452.24987793 C471.00726386 455.09734715 473.8594239 457.94325844 476.71279907 460.78796387 C481.22951311 465.29109526 485.74235666 469.79809225 490.25463867 474.30566406 C499.83346253 483.87341259 509.41650956 493.43692608 519 503 C529.34798248 513.32593729 539.69522839 523.65260622 550.03759098 533.98417282 C554.51841637 538.46003173 559.00166496 542.93344458 563.48681641 547.40496826 C566.28136096 550.19202602 569.0738075 552.9811787 571.86570358 555.77088928 C573.15515081 557.05847286 574.445458 558.34519595 575.73671341 559.63096619 C582.04179066 565.91011329 588.28730406 572.16649543 594 579 C594.50666199 579.59531021 595.01332397 580.19062042 595.53533936 580.80397034 C632.20049132 623.95851141 649.62632496 680.3593627 645.53564453 736.65161133 C641.33720774 785.5399732 620.13321491 831.82454952 586 867 C585.43410156 867.59167969 584.86820313 868.18335938 584.28515625 868.79296875 C542.90114193 911.95694067 484.84419618 936.54265546 425.18359375 938.28515625 C364.21272444 939.49227298 305.60017062 920.00990764 260 879 C259.16331787 878.25016846 258.32663574 877.50033691 257.46459961 876.7277832 C249.7864784 869.77371081 242.40120624 862.5561431 235.08911133 855.21948242 C233.17577806 853.30074495 231.25709496 851.38747246 229.33789062 849.47460938 C228.09342897 848.22948745 226.84927726 846.98405564 225.60546875 845.73828125 C225.0449028 845.17973953 224.48433685 844.62119781 223.90678406 844.04573059 C221.23048128 841.35384403 218.66531982 838.62549055 216.22212219 835.72013855 C210.22474694 828.84610743 203.63875625 822.5169532 197.1796875 816.08203125 C195.67256747 814.5768326 194.16567659 813.07140448 192.65899658 811.56576538 C189.42532184 808.33524132 186.19010253 805.10627504 182.95367432 801.87850952 C177.83207858 796.77048185 172.71433999 791.65860135 167.59716797 786.54614258 C156.73440595 775.69446191 145.86742289 764.84701273 135 754 C123.26621912 742.28825639 111.5331698 730.57578556 99.80500221 718.85842037 C94.72204725 713.78043627 89.63666656 708.70489798 84.5493927 703.63124084 C81.38119079 700.47051831 78.21508002 697.30770736 75.0495224 694.1443367 C73.58591797 692.68259817 72.12145239 691.22172128 70.65604401 689.76179123 C58.18840406 677.33928052 58.18840406 677.33928052 54.5057373 673.0057373 C48.79291074 666.28494307 42.33164522 660.21080162 36.08789062 653.99023438 C34.57091852 652.47518362 33.05417554 650.95990342 31.53764343 649.44441223 C28.28268772 646.19260734 25.02618736 642.94236021 21.76847839 639.6933136 C16.61327806 634.55168063 11.46193424 629.40619545 6.31115723 624.26013184 C-4.62293467 613.33712158 -15.56124751 602.41834264 -26.5 591.5 C-38.3107697 579.71126718 -50.1208081 567.92180735 -61.92596483 556.12745333 C-67.04237143 551.0160178 -72.16120388 545.90702809 -77.28192902 540.79991913 C-80.47088969 537.61843746 -83.65775956 534.4348677 -86.84407616 531.25073814 C-88.31735598 529.77932433 -89.79149701 528.30877221 -91.26658058 526.83916664 C-103.8229541 514.32794294 -103.8229541 514.32794294 -109.05690765 508.16893768 C-114.37781674 502.22958012 -120.17306243 496.70816945 -125.8203125 491.08203125 C-127.32743253 489.5768326 -128.83432341 488.07140448 -130.34100342 486.56576538 C-133.57467816 483.33524132 -136.80989747 480.10627504 -140.04632568 476.87850952 C-145.16792142 471.77048185 -150.28566001 466.65860135 -155.40283203 461.54614258 C-166.26559405 450.69446191 -177.13257711 439.84701273 -188 429 C-199.73378088 417.28825639 -211.4668302 405.57578556 -223.19499779 393.85842037 C-228.27795275 388.78043627 -233.36333344 383.70489798 -238.4506073 378.63124084 C-241.61880921 375.47051831 -244.78491998 372.30770736 -247.9504776 369.1443367 C-249.41408203 367.68259817 -250.87854761 366.22172128 -252.34395599 364.76179123 C-265.81400434 351.34050055 -265.81400434 351.34050055 -270.63577271 345.56123352 C-272.19805562 343.77334344 -273.88647809 342.17821656 -275.625 340.5625 C-311.87595409 304.52108899 -331.09719234 249.88843334 -331.24819946 199.54498291 C-331.24879364 198.78763855 -331.24938782 198.03029419 -331.25 197.25 C-331.25067474 196.4747699 -331.25134949 195.69953979 -331.25204468 194.90081787 C-331.23435507 182.06147125 -330.52468952 169.6209845 -328 157 C-327.82839355 156.13310547 -327.65678711 155.26621094 -327.47998047 154.37304688 C-319.58119583 115.77558984 -301.46265022 80.20268049 -274.39453125 51.546875 C-272.44879182 49.47734465 -270.61317042 47.3813087 -268.8125 45.1875 C-266.23077772 42.14631867 -263.39724547 39.56057155 -260.3515625 36.98828125 C-258.65612106 35.55476016 -256.98719816 34.08966638 -255.3359375 32.60546875 C-187.5352836 -27.76590451 -80.79868912 -40.14755411 0 0 Z " fill="#FF0000" transform="translate(615,311)"/>
<path d="M0 0 C2.69374234 2.1451312 5.06804136 4.55737479 7.421875 7.06640625 C9.36532897 9.01650451 11.34449599 10.79689693 13.4296875 12.58984375 C18.67728308 17.1384083 23.48854168 22.09136831 28.3515625 27.04296875 C31.71031249 30.43856061 35.08555549 33.74355269 38.70703125 36.859375 C43.87263869 41.30372752 48.57995418 46.18444588 53.3515625 51.04296875 C56.71031249 54.43856061 60.08555549 57.74355269 63.70703125 60.859375 C68.87263869 65.30372752 73.57995418 70.18444588 78.3515625 75.04296875 C81.71031249 78.43856061 85.08555549 81.74355269 88.70703125 84.859375 C93.87263869 89.30372752 98.57995418 94.18444588 103.3515625 99.04296875 C106.70005648 102.4281921 110.06363794 105.72382758 113.67578125 108.828125 C119.08123736 113.47883699 124.00011925 118.60626996 128.99609375 123.6875 C133.10215096 127.8358877 137.28513294 131.78237477 141.7109375 135.5859375 C146.13500233 139.51651565 150.20683569 143.822746 154.3515625 148.04296875 C157.71031249 151.43856061 161.08555549 154.74355269 164.70703125 157.859375 C169.87263869 162.30372752 174.57995418 167.18444588 179.3515625 172.04296875 C182.71031249 175.43856061 186.08555549 178.74355269 189.70703125 181.859375 C194.87263869 186.30372752 199.57995418 191.18444588 204.3515625 196.04296875 C207.71031249 199.43856061 211.08555549 202.74355269 214.70703125 205.859375 C219.87263869 210.30372752 224.57995418 215.18444588 229.3515625 220.04296875 C232.71031249 223.43856061 236.08555549 226.74355269 239.70703125 229.859375 C244.87263869 234.30372752 249.57995418 239.18444588 254.3515625 244.04296875 C257.71031249 247.43856061 261.08555549 250.74355269 264.70703125 253.859375 C269.87263869 258.30372752 274.57995418 263.18444588 279.3515625 268.04296875 C282.71031249 271.43856061 286.08555549 274.74355269 289.70703125 277.859375 C294.87263869 282.30372752 299.57995418 287.18444588 304.3515625 292.04296875 C307.71031249 295.43856061 311.08555549 298.74355269 314.70703125 301.859375 C319.87263869 306.30372752 324.57995418 311.18444588 329.3515625 316.04296875 C332.70005648 319.4281921 336.06363794 322.72382758 339.67578125 325.828125 C345.08123736 330.47883699 350.00011925 335.60626996 354.99609375 340.6875 C359.10215096 344.8358877 363.28513294 348.78237477 367.7109375 352.5859375 C372.13500233 356.51651565 376.20683569 360.822746 380.3515625 365.04296875 C383.70903051 368.43726456 387.08281654 371.74108604 390.703125 374.85546875 C395.12098523 378.6563276 399.18772702 382.76619196 403.26953125 386.921875 C407.77073575 391.50410929 412.25167264 395.97663254 417.234375 400.03833008 C420.90469686 403.33078889 422.42625159 406.43894811 423.12109375 411.19140625 C423.45772525 418.23409148 422.40361666 423.03228908 417.70703125 428.359375 C411.47626351 434.27860435 405.84765823 434.65074469 397.63037109 434.60661316 C396.09131208 434.61023823 396.09131208 434.61023823 394.52116096 434.61393654 C391.07003259 434.61959109 387.61908889 434.61090255 384.16796875 434.60229492 C381.68715936 434.60333401 379.20635021 434.60523665 376.72554207 434.60793591 C370.64678616 434.61222294 364.56810114 434.60715105 358.48935588 434.59799364 C351.3071938 434.5876475 344.1250454 434.58863349 336.94287761 434.589919 C321.52420273 434.5921666 306.10556337 434.57843419 290.68690077 434.56041764 C289.89685033 434.55949475 289.10679989 434.55857186 288.29280853 434.557621 C287.10635859 434.55623094 287.10635859 434.55623094 285.89593997 434.5548128 C277.94362409 434.54566863 269.99130669 434.53934599 262.03898789 434.53337548 C227.69751071 434.50753697 193.35608608 434.46576095 159.01465251 434.4051902 C155.38220494 434.39878423 151.7497573 434.39242457 148.11730957 434.3861084 C147.41374492 434.3848845 146.71018028 434.38366061 145.98529549 434.38239963 C133.11437671 434.36019373 120.24345678 434.34668606 107.37252378 434.33573067 C89.78839006 434.32066576 72.20443121 434.2917586 54.62041855 434.22246647 C53.03161371 434.21622186 51.44280883 434.2099882 49.85400391 434.20376587 C48.69447279 434.19920412 48.69447279 434.19920412 47.51151681 434.19455022 C42.13868855 434.17457851 36.76592877 434.16691579 31.39306641 434.16464233 C24.37980936 434.16150305 17.36707467 434.13340995 10.3539772 434.08613205 C7.88866224 434.07326607 5.42328718 434.06855882 2.95794296 434.07316971 C-0.31527133 434.07801802 -3.58685248 434.05250284 -6.85986328 434.01879883 C-8.24638596 434.03173871 -8.24638596 434.03173871 -9.66091919 434.04493999 C-16.87735121 433.91782568 -23.81052639 431.92432446 -28.98683357 426.62537861 C-33.01009205 421.25028467 -33.41771841 417.12375617 -33.42439651 410.58011246 C-33.42644915 409.89579088 -33.42850178 409.21146931 -33.43061662 408.50641072 C-33.43629228 406.20251838 -33.43482867 403.89868571 -33.43341064 401.5947876 C-33.43599395 399.93061687 -33.43900702 398.26644676 -33.44241405 396.60227752 C-33.45049128 392.0205209 -33.45227402 387.43877994 -33.45301151 382.85701704 C-33.4548608 377.91891528 -33.46240749 372.98082167 -33.46914673 368.04272461 C-33.48273556 357.24111703 -33.48875558 346.43951315 -33.49315739 335.63789845 C-33.49591879 328.89521264 -33.50015595 322.15252828 -33.50466156 315.40984344 C-33.51685478 296.74661982 -33.5271541 278.08339735 -33.53053665 259.42016983 C-33.53075622 258.22540786 -33.53097578 257.0306459 -33.531202 255.79967903 C-33.53142028 254.60203611 -33.53163856 253.4043932 -33.53186345 252.17045808 C-33.53230692 249.74352153 -33.53275348 247.31658498 -33.53320312 244.88964844 C-33.53342455 243.68580056 -33.53364598 242.48195268 -33.53387412 241.24162456 C-33.53782285 221.73128929 -33.55527891 202.22099135 -33.57856265 182.7106705 C-33.6022668 162.68668401 -33.61473807 142.66271626 -33.61590457 122.63871551 C-33.61682184 111.39315874 -33.62258724 100.14765062 -33.64072418 88.90210724 C-33.65611251 79.32696613 -33.66125311 69.7518887 -33.65298608 60.17673758 C-33.64907513 55.29072779 -33.65003089 50.40484629 -33.66404343 45.51885223 C-33.67675552 41.04542909 -33.67560852 36.57223098 -33.66345271 32.09880826 C-33.66149105 30.48102824 -33.66459578 28.86323242 -33.67329708 27.24547461 C-33.76174931 9.68780987 -33.76174931 9.68780987 -28.49609375 3.1171875 C-20.07170614 -3.92560054 -9.8040514 -6.33704493 0 0 Z " fill="#FF0000" transform="translate(312.29296875,829.640625)"/>
<path d="M0 0 C1.02603934 -0.00241672 2.05207869 -0.00483343 3.10921013 -0.00732338 C6.5603385 -0.01297793 10.0112822 -0.00428939 13.46240234 0.00431824 C15.94321173 0.00327915 18.42402089 0.00137651 20.90482903 -0.00132275 C26.98358494 -0.00560978 33.06226995 -0.00053789 39.14101521 0.00861952 C46.32317729 0.01896566 53.5053257 0.01797967 60.68749349 0.01669416 C76.10616836 0.01444656 91.52480772 0.02817897 106.94347032 0.04619552 C108.12854598 0.04757986 108.12854598 0.04757986 109.33756256 0.04899216 C110.12852919 0.04991886 110.91949581 0.05084557 111.73443113 0.05180036 C119.686747 0.06094453 127.6390644 0.06726717 135.5913832 0.07323768 C169.93286038 0.09907619 204.27428502 0.14085221 238.61571858 0.20142296 C242.24816615 0.20782893 245.8806138 0.21418859 249.51306152 0.22050476 C250.21662617 0.22172866 250.92019082 0.22295255 251.6450756 0.22421353 C264.51599438 0.24641943 277.38691432 0.2599271 290.25784731 0.27088249 C307.84198104 0.2859474 325.42593988 0.31485456 343.00995255 0.38414669 C344.59875738 0.39039129 346.18756226 0.39662496 347.77636719 0.40284729 C348.9358983 0.40740904 348.9358983 0.40740904 350.11885428 0.41206294 C355.49168254 0.43203465 360.86444232 0.43969737 366.23730469 0.44197083 C373.25056173 0.4451101 380.26329643 0.47320321 387.27639389 0.52048111 C389.74170885 0.53334709 392.20708391 0.53805434 394.67242813 0.53344345 C397.94564242 0.52859514 401.21722358 0.55411032 404.49023438 0.58781433 C405.41458282 0.57918775 406.33893127 0.57056116 407.29129028 0.56167316 C414.50772231 0.68878748 421.44089748 2.6822887 426.61720467 7.98123455 C430.64046314 13.35632849 431.04808951 17.48285698 431.05476761 24.0265007 C431.05682024 24.71082228 431.05887288 25.39514385 431.06098771 26.10020244 C431.06666338 28.40409478 431.06519976 30.70792745 431.06378174 33.01182556 C431.06636505 34.67599629 431.06937811 36.3401664 431.07278514 38.00433564 C431.08086238 42.58609226 431.08264511 47.16783322 431.08338261 51.74959612 C431.0852319 56.68769788 431.09277859 61.62579149 431.09951782 66.56388855 C431.11310665 77.36549613 431.11912668 88.16710001 431.12352848 98.96871471 C431.12628988 105.71140052 431.13052704 112.45408488 431.13503265 119.19676971 C431.14722587 137.85999334 431.15752519 156.52321581 431.16090775 175.18644333 C431.16112731 176.38120529 431.16134688 177.57596726 431.1615731 178.80693413 C431.16179137 180.00457705 431.16200965 181.20221996 431.16223454 182.43615508 C431.16267801 184.86309163 431.16312458 187.29002818 431.16357422 189.71696472 C431.16379565 190.9208126 431.16401708 192.12466048 431.16424522 193.3649886 C431.16819394 212.87532387 431.18565001 232.38562181 431.20893374 251.89594266 C431.2326379 271.91992915 431.24510916 291.9438969 431.24627566 311.96789765 C431.24719293 323.21345442 431.25295834 334.45896254 431.27109528 345.70450592 C431.2864836 355.27964703 431.2916242 364.85472446 431.28335717 374.42987558 C431.27944623 379.31588537 431.28040198 384.20176687 431.29441452 389.08776093 C431.30712662 393.56118407 431.30597961 398.03438218 431.29382381 402.5078049 C431.29186215 404.12558492 431.29496687 405.74338074 431.30366817 407.36113855 C431.3921204 424.91880329 431.3921204 424.91880329 426.12646484 431.48942566 C420.30441943 436.35665563 415.65521464 438.56606179 407.92333984 438.12223816 C399.99464035 437.05629518 395.51067682 433.19198197 390.20849609 427.54020691 C388.26504212 425.59010865 386.2858751 423.80971623 384.20068359 422.01676941 C378.95308801 417.46820486 374.14182942 412.51524485 369.27880859 407.56364441 C365.9200586 404.16805255 362.54481561 400.86306047 358.92333984 397.74723816 C353.7577324 393.30288564 349.05041692 388.42216728 344.27880859 383.56364441 C340.9200586 380.16805255 337.54481561 376.86306047 333.92333984 373.74723816 C328.7577324 369.30288564 324.05041692 364.42216728 319.27880859 359.56364441 C315.9200586 356.16805255 312.54481561 352.86306047 308.92333984 349.74723816 C303.7577324 345.30288564 299.05041692 340.42216728 294.27880859 335.56364441 C290.93031462 332.17842106 287.56673315 328.88278558 283.95458984 325.77848816 C278.54913374 321.12777617 273.63025185 316.0003432 268.63427734 310.91911316 C264.52822013 306.77072546 260.34523816 302.82423839 255.91943359 299.02067566 C251.49536876 295.09009751 247.42353541 290.78386716 243.27880859 286.56364441 C239.9200586 283.16805255 236.54481561 279.86306047 232.92333984 276.74723816 C227.7577324 272.30288564 223.05041692 267.42216728 218.27880859 262.56364441 C214.9200586 259.16805255 211.54481561 255.86306047 207.92333984 252.74723816 C202.7577324 248.30288564 198.05041692 243.42216728 193.27880859 238.56364441 C189.9200586 235.16805255 186.54481561 231.86306047 182.92333984 228.74723816 C177.7577324 224.30288564 173.05041692 219.42216728 168.27880859 214.56364441 C164.9200586 211.16805255 161.54481561 207.86306047 157.92333984 204.74723816 C152.7577324 200.30288564 148.05041692 195.42216728 143.27880859 190.56364441 C139.9200586 187.16805255 136.54481561 183.86306047 132.92333984 180.74723816 C127.7577324 176.30288564 123.05041692 171.42216728 118.27880859 166.56364441 C114.9200586 163.16805255 111.54481561 159.86306047 107.92333984 156.74723816 C102.7577324 152.30288564 98.05041692 147.42216728 93.27880859 142.56364441 C89.9200586 139.16805255 86.54481561 135.86306047 82.92333984 132.74723816 C77.7577324 128.30288564 73.05041692 123.42216728 68.27880859 118.56364441 C64.93031462 115.17842106 61.56673315 111.88278558 57.95458984 108.77848816 C52.54913374 104.12777617 47.63025185 99.0003432 42.63427734 93.91911316 C38.52822013 89.77072546 34.34523816 85.82423839 29.91943359 82.02067566 C25.49536876 78.09009751 21.42353541 73.78386716 17.27880859 69.56364441 C13.92134058 66.1693486 10.54755456 62.86552712 6.92724609 59.75114441 C2.50938586 55.95028556 -1.55735592 51.8404212 -5.63916016 47.68473816 C-10.14036466 43.10250387 -14.62130155 38.62998061 -19.60400391 34.56828308 C-23.27432576 31.27582427 -24.7958805 28.16766505 -25.49072266 23.41520691 C-25.82735415 16.37252168 -24.77324557 11.57432408 -20.07666016 6.24723816 C-13.84589242 0.32800881 -8.21728714 -0.04413153 0 0 Z " fill="#FF0000" transform="translate(821.07666015625,266.7527618408203)"/>
</svg>
